HIERARCHY
ROOT pelvis
{
  OFFSET 0 100 0
  CHANNELS 6 Xposition Yposition Zposition Zrotation Xrotation Yrotation
  JOINT pelvis_right_femur
  {
    OFFSET -10.78128 -3.44521 -0.5502486
    CHANNELS 3 Zrotation Xrotation Yrotation
    JOINT right_femur_tibia
    {
      OFFSET -0.8047443 -44.0398 -0.1307829
      CHANNELS 3 Zrotation Xrotation Yrotation
      JOINT right_tibia_foot
      {
        OFFSET 3.006224 -47.83518 -5
        CHANNELS 3 Zrotation Xrotation Yrotation
        End Site
        {
          OFFSET 0 -5 15
        }
      }
    }
  }
  JOINT pelvis_left_femur
  {
    OFFSET 10.78128 -3.44521 -0.5502486
    CHANNELS 3 Zrotation Xrotation Yrotation
    JOINT left_femur_tibia
    {
      OFFSET 0.8047443 -44.0398 -0.1307829
      CHANNELS 3 Zrotation Xrotation Yrotation
      JOINT left_tibia_foot
      {
        OFFSET -4.370144 -48.10324 -4.275266
        CHANNELS 3 Zrotation Xrotation Yrotation
        End Site
        {
          OFFSET 0 -5 15
        }
      }
    }
  }
  JOINT pelvis_spine1
  {
    OFFSET 0 6.468898 -3.129235
    CHANNELS 3 Zrotation Xrotation Yrotation
    JOINT spine1
    {
      OFFSET 0 23.15396 4.99043
      CHANNELS 3 Zrotation Xrotation Yrotation
      JOINT spine2
      {
        OFFSET 0 20.79997 -5.064912
        CHANNELS 3 Zrotation Xrotation Yrotation
        JOINT neck
        {
          OFFSET 0 14.38658 9.616178
          CHANNELS 3 Zrotation Xrotation Yrotation
          End Site
          {
            OFFSET 0 20 0
          }
        }
      }
      JOINT right_manubrium
      {
        OFFSET -5.722621 16.35077 3.967754
        CHANNELS 3 Zrotation Xrotation Yrotation
        JOINT right_clavicle
        {
          OFFSET -13.16364 1.694482 -4.693211
          CHANNELS 3 Zrotation Xrotation Yrotation
          JOINT right_humerus
          {
            OFFSET -28.5034 -0.3100689 -2.792744
            CHANNELS 3 Zrotation Xrotation Yrotation
            JOINT right_radius
            {
              OFFSET -25.15693 0.02248979 -1.271978
              CHANNELS 3 Zrotation Xrotation Yrotation
              End Site
              {
                OFFSET -15 0 0
              }
            }
          }
        }
      }
      JOINT left_manubrium
      {
        OFFSET 5.722621 16.35077 3.967754
        CHANNELS 3 Zrotation Xrotation Yrotation
        JOINT left_clavicle
        {
          OFFSET 13.16364 1.694482 -4.693211
          CHANNELS 3 Zrotation Xrotation Yrotation
          JOINT left_humerus
          {
            OFFSET 29.39168 -1.063119 -2.237045
            CHANNELS 3 Zrotation Xrotation Yrotation
            JOINT left_radius
            {
              OFFSET 24.59957 -0.9528479 0.9047498
              CHANNELS 3 Zrotation Xrotation Yrotation
              End Site
              {
                OFFSET 15 -0 -0
              }
            }
          }
        }
      }
    }
  }
}
MOTION
Frames: 7
Frame Time: 0.0416666666667
0 103.5113 0 1.572804 -3.19534 0.3180842 1.119249 -10.34322 6.84502 -0 40.4372 -0 -6.099452 -16.11871 -3.757013 -6.831222 12.26866 -24.95871 -0 5.216174 -0 -0.4486764 -19.89463 23.43305 0.04040469 -2.18036 4.897054 -0.3027955 8.207544 -7.592616 1.89703 21.71449 8.162657 5.590334 -22.19772 9.040564 6.110743 -18.48826 9.786752 90.27857 36.45992 -26.18055 -0 0 15.86197 -6.273084 10.10159 0.455294 8.627833 -22.5252 -2.71918 -100.5887 42.18714 27.96197 0 0 -27.47943 -7.968723 19.19618 27.92143
0.1325665 103.4944 1.214679 1.18828 -2.158245 0.5581293 1.500008 -13.13002 7.211728 -0 41.195 -0 -6.133096 -16.01999 -3.90432 -6.635065 12.79934 -25.36586 -0 4.982897 -0 -1.9704 -21.08503 22.74705 0.01521671 -2.100603 4.876353 -0.2040757 8.197288 -7.594049 1.842004 21.73462 8.158802 5.518989 -22.30147 9.032289 6.084773 -18.44608 9.847746 90.22778 36.54786 -26.0427 -0 0 15.69402 -6.396953 10.16794 0.6551034 8.455863 -22.45323 -2.720834 -100.3141 41.91265 27.77205 0 0 -27.40159 -7.709868 18.98173 27.56347
0.2438494 103.292 2.838334 0.3027429 -1.906968 0.7439456 2.754726 -18.45217 5.996248 -0 38.43121 -0 -7.128608 -12.60964 -3.28078 -5.810871 12.90067 -23.85563 -0 5.796421 -0 -1.700901 -21.63769 21.84548 -0.06703012 -1.728551 4.751798 0.154225 8.141178 -7.603852 1.622705 21.82215 8.17623 5.291462 -22.60258 8.951008 5.983256 -18.25502 10.09991 89.95958 36.8435 -25.45035 -0 0 15.07737 -7.19362 10.58109 1.520909 7.818429 -22.19749 -2.724419 -99.27715 40.98433 27.02351 0 0 -27.08698 -7.034942 18.13067 26.51366
0.3534416 102.9794 4.728586 -0.2621799 -1.052715 0.9080016 3.625583 -22.83252 5.541331 -0 35.56887 -0 -7.234128 -10.92946 -2.995616 -5.428774 13.18274 -22.87086 -0 5.820781 -0 -1.68203 -22.52075 21.06451 -0.1913096 -1.491926 4.641683 0.5302967 8.104042 -7.645628 1.441311 21.8776 8.142492 5.034034 -23.0006 8.915706 5.865886 -18.12776 10.31526 89.80031 36.9417 -25.00728 -0 0 14.55974 -7.481552 10.62888 2.179973 7.234709 -21.93517 -2.755865 -98.43447 40.10513 26.4202 0 0 -26.80152 -6.321759 17.36521 25.44161
0.4829813 102.4815 6.994067 -0.711432 0.01519433 1.04248 4.519624 -27.35253 5.040659 -0 31.00184 -0 -7.000094 -9.292608 -2.679938 -5.20494 13.5298 -21.58804 -0 5.867489 -0 -1.074565 -23.42217 20.32213 -0.3264213 -1.308435 4.490327 0.9209437 8.056969 -7.730251 1.283261 21.91443 8.100592 4.785465 -23.43252 8.899053 5.741137 -18.01032 10.50908 89.73001 36.87281 -24.71497 -0 0 14.09021 -7.513328 10.49733 2.698 6.706436 -21.68999 -2.810376 -97.74453 39.40721 25.89016 0 0 -26.57871 -5.802895 16.66191 24.59569
0.6405132 101.7722 9.715431 -0.9873448 1.070568 1.16773 5.211498 -31.08639 4.416914 -0 25.64733 -0 -6.591144 -7.598841 -2.356193 -5.130191 13.96732 -20.24967 -0 6.176584 -0 -0.6443605 -24.3477 19.41768 -0.4611063 -1.160665 4.341361 1.290212 8.013484 -7.819408 1.1454 21.93785 8.051529 4.554362 -23.84278 8.882755 5.631678 -17.89755 10.68119 89.67888 36.7605 -24.47714 -0 0 13.64971 -7.452151 10.30414 3.149961 6.230307 -21.4615 -2.870312 -97.12081 38.75935 25.39318 0 0 -26.37616 -5.336335 16.0211 23.82468
0.8258294 100.8586 13.01311 -1.111747 1.933884 1.31758 5.652793 -33.70423 3.471957 -0 19.91061 -0 -6.275498 -5.464703 -1.956247 -5.143873 14.49709 -18.77042 -0 7.189091 -0 -0.5858996 -25.06155 18.18648 -0.5903903 -1.03165 4.195175 1.631729 7.971468 -7.90684 1.023643 21.95286 8.001892 4.346108 -24.212 8.859444 5.539024 -17.78428 10.83599 89.6259 36.63078 -24.2661 -0 0 13.23539 -7.380565 10.10323 3.566393 5.802223 -21.2507 -2.930336 -96.5442 38.1577 24.917 0 0 -26.18461 -4.935611 15.43715 23.14053
